<?xml version="1.0" encoding="UTF-8"?><svg id="Layer_1" xmlns="http://www.w3.org/2000/svg" viewBox="0 0 331.1 106.07"><defs><style>.cls-1{fill:#f47648;}.cls-2{fill:#fac964;}.cls-3{fill:#fae9b4;}.cls-4{fill:#fbdf88;}.cls-5{fill:#2f4259;}.cls-6{fill:#58595b;}</style></defs><rect class="cls-4" x="200.03" y="25.9" width="108.07" height="65.87"/><path class="cls-2" d="m200.03,91.77h108.07l-48.09-43.76c-.88-.8-1.92-1.41-3.04-1.79l-.08-.03c-1.83-.62-3.81-.61-5.63.03h0c-1.09.38-2.1.98-2.95,1.76l-48.27,43.8Z"/><path class="cls-6" d="m14.57,36.66c0-3.71-.07-6.75-.3-9.72h5.72l.3,5.79h.22c2-3.41,5.35-6.61,11.28-6.61,4.9,0,8.61,2.97,10.17,7.2h.15c1.11-2,2.52-3.56,4.01-4.68,2.15-1.63,4.53-2.52,7.94-2.52,4.75,0,11.8,3.12,11.8,15.59v21.16h-6.38v-20.34c0-6.9-2.52-11.06-7.79-11.06-3.71,0-6.61,2.75-7.72,5.94-.3.89-.52,2.08-.52,3.27v22.2h-6.38v-21.53c0-5.72-2.52-9.87-7.5-9.87-4.08,0-7.05,3.27-8.09,6.53-.37.96-.52,2.08-.52,3.19v21.68h-6.38v-26.21Z"/><path class="cls-6" d="m82.94,43.42h.15c.89-1.26,2.15-2.82,3.19-4.08l10.54-12.4h7.87l-13.88,14.77,15.81,21.16h-7.94l-12.4-17.22-3.34,3.71v13.51h-6.46V10.16h6.46v33.26Z"/><path class="cls-5" d="m119.83,16.84c.07,2.23-1.56,4.01-4.16,4.01-2.3,0-3.93-1.78-3.93-4.01s1.71-4.08,4.08-4.08,4.01,1.78,4.01,4.08Zm-7.28,46.03V26.94h6.53v35.93h-6.53Z"/><path class="cls-5" d="m137.79,16.62v10.32h9.35v4.97h-9.35v19.38c0,4.45,1.26,6.98,4.9,6.98,1.71,0,2.97-.22,3.79-.45l.3,4.9c-1.26.52-3.27.89-5.79.89-3.04,0-5.49-.96-7.05-2.75-1.86-1.93-2.52-5.12-2.52-9.35v-19.6h-5.57v-4.97h5.57v-8.61l6.38-1.71Z"/><path class="cls-5" d="m157.69,46.09c.15,8.83,5.79,12.47,12.32,12.47,4.68,0,7.5-.82,9.95-1.86l1.11,4.68c-2.3,1.04-6.24,2.23-11.95,2.23-11.06,0-17.67-7.28-17.67-18.11s6.38-19.38,16.85-19.38c11.73,0,14.85,10.32,14.85,16.93,0,1.34-.15,2.38-.22,3.04h-25.24Zm19.15-4.68c.07-4.16-1.71-10.62-9.06-10.62-6.61,0-9.5,6.09-10.02,10.62h19.08Z"/><path class="cls-1" d="m80.28,84.54c.06,3.81,2.5,5.38,5.31,5.38,2.02,0,3.23-.35,4.29-.8l.48,2.02c-.99.45-2.69.96-5.15.96-4.77,0-7.62-3.14-7.62-7.81s2.75-8.35,7.26-8.35c5.06,0,6.4,4.45,6.4,7.29,0,.58-.06,1.02-.1,1.31h-10.88Zm8.26-2.02c.03-1.79-.74-4.58-3.9-4.58-2.85,0-4.1,2.62-4.32,4.58h8.22Z"/><path class="cls-1" d="m94.75,80.47c0-1.6-.03-2.91-.13-4.19h2.5l.16,2.56h.06c.77-1.47,2.56-2.91,5.12-2.91,2.14,0,5.47,1.28,5.47,6.59v9.25h-2.82v-8.93c0-2.5-.93-4.58-3.58-4.58-1.86,0-3.3,1.31-3.78,2.88-.13.35-.19.83-.19,1.31v9.31h-2.82v-11.3Z"/><path class="cls-1" d="m125.85,76.28c-.06,1.12-.13,2.37-.13,4.26v8.99c0,3.55-.7,5.73-2.21,7.07-1.5,1.41-3.68,1.86-5.63,1.86s-3.9-.45-5.15-1.28l.7-2.14c1.02.64,2.62,1.22,4.54,1.22,2.88,0,4.99-1.5,4.99-5.41v-1.73h-.06c-.86,1.44-2.53,2.59-4.93,2.59-3.84,0-6.59-3.26-6.59-7.55,0-5.25,3.42-8.22,6.98-8.22,2.69,0,4.16,1.41,4.83,2.69h.06l.13-2.34h2.46Zm-2.91,6.11c0-.48-.03-.9-.16-1.28-.51-1.63-1.89-2.98-3.94-2.98-2.69,0-4.61,2.27-4.61,5.86,0,3.04,1.54,5.57,4.58,5.57,1.73,0,3.3-1.09,3.9-2.88.16-.48.22-1.02.22-1.5v-2.78Z"/><path class="cls-1" d="m133.34,71.93c.03.96-.67,1.73-1.79,1.73-.99,0-1.7-.77-1.7-1.73s.74-1.76,1.76-1.76,1.73.77,1.73,1.76Zm-3.14,19.84v-15.49h2.82v15.49h-2.82Z"/><path class="cls-1" d="m137.69,80.47c0-1.6-.03-2.91-.13-4.19h2.5l.16,2.56h.06c.77-1.47,2.56-2.91,5.12-2.91,2.14,0,5.47,1.28,5.47,6.59v9.25h-2.82v-8.93c0-2.5-.93-4.58-3.58-4.58-1.86,0-3.3,1.31-3.78,2.88-.13.35-.19.83-.19,1.31v9.31h-2.82v-11.3Z"/><path class="cls-1" d="m157.02,84.54c.06,3.81,2.5,5.38,5.31,5.38,2.02,0,3.23-.35,4.29-.8l.48,2.02c-.99.45-2.69.96-5.15.96-4.77,0-7.62-3.14-7.62-7.81s2.75-8.35,7.26-8.35c5.06,0,6.4,4.45,6.4,7.29,0,.58-.06,1.02-.1,1.31h-10.88Zm8.26-2.02c.03-1.79-.74-4.58-3.9-4.58-2.85,0-4.1,2.62-4.32,4.58h8.22Z"/><path class="cls-1" d="m171.1,88.89c.83.54,2.3,1.12,3.71,1.12,2.05,0,3.01-1.02,3.01-2.3,0-1.34-.8-2.08-2.88-2.85-2.78-.99-4.1-2.53-4.1-4.38,0-2.5,2.02-4.54,5.34-4.54,1.57,0,2.94.45,3.81.96l-.7,2.05c-.61-.38-1.73-.9-3.17-.9-1.66,0-2.59.96-2.59,2.11,0,1.28.93,1.86,2.94,2.62,2.69,1.02,4.06,2.37,4.06,4.67,0,2.72-2.11,4.64-5.79,4.64-1.7,0-3.26-.42-4.35-1.06l.7-2.14Z"/><path class="cls-3" d="m200.03,25.9h108.07l-48.09,43.76c-.88.8-1.92,1.41-3.04,1.79l-.08.03c-1.83.62-3.81.61-5.63-.03h0c-1.09-.38-2.1-.98-2.95-1.76l-48.27-43.8Z"/><circle class="cls-1" cx="304.9" cy="27.96" r="10.21"/></svg>